<?xml version="1.0" encoding="UTF-8" standalone="no"?>
<!-- Created with Inkscape (http://www.inkscape.org/) -->

<svg
   width="500mm"
   height="500mm"
   viewBox="0 0 500 500.00001"
   version="1.1"
   id="svg5"
   xml:space="preserve"
   inkscape:version="1.2.2 (b0a8486541, 2022-12-01)"
   sodipodi:docname="duck-of-doom.svg"
   xmlns:inkscape="http://www.inkscape.org/namespaces/inkscape"
   xmlns:sodipodi="http://sodipodi.sourceforge.net/DTD/sodipodi-0.dtd"
   xmlns="http://www.w3.org/2000/svg"
   xmlns:svg="http://www.w3.org/2000/svg"><sodipodi:namedview
     id="namedview7"
     pagecolor="#ffffff"
     bordercolor="#666666"
     borderopacity="1.0"
     inkscape:showpageshadow="2"
     inkscape:pageopacity="0.0"
     inkscape:pagecheckerboard="0"
     inkscape:deskcolor="#d1d1d1"
     inkscape:document-units="mm"
     showgrid="false"
     inkscape:zoom="0.27677781"
     inkscape:cx="961.05972"
     inkscape:cy="402.85022"
     inkscape:window-width="2530"
     inkscape:window-height="1412"
     inkscape:window-x="30"
     inkscape:window-y="0"
     inkscape:window-maximized="1"
     inkscape:current-layer="layer1" /><defs
     id="defs2" /><g
     inkscape:label="Layer 1"
     inkscape:groupmode="layer"
     id="layer1"
     transform="translate(228.90081,47.358436)"><rect
       style="fill:#787956;fill-opacity:1;stroke-width:0.265;stroke-dasharray:none;stop-color:#000000"
       id="rect1157"
       width="500"
       height="500"
       x="-228.9008"
       y="-47.358437" /><path
       id="rect1157-3"
       style="fill:#fcffff;fill-opacity:1;stroke-width:0.265;stroke-dasharray:none;stop-color:#000000"
       d="M 110.31104 -34.529762 L 19.274223 8.6588166 L -4.6995079 50.176696 L 4.8947385 88.530427 L 23.412988 127.65569 L 25.215979 169.69033 L 68.967313 185.89709 L 188.92795 202.30436 L 201.17836 260.95815 L 164.62349 340.44425 L 107.60423 452.64154 L 271.09916 452.64154 L 271.09916 3.7655752 L 213.28977 -28.982297 L 110.31104 -34.529762 z " /><path
       style="fill:#ffff00;fill-opacity:1"
       d="m 28.310175,152.06519 -69.3016,29.58546 -96.760875,19.81489 -69.22697,-6.00912 23.75255,-22.69321 84.67805,-35.57597 86.281634,-64.16814 22.0147726,27.87038 z"
       id="path1103" /><path
       id="rect1157-6"
       style="fill:#000000;fill-opacity:1;stroke-width:0.265;stroke-dasharray:none;stop-color:#000000"
       d="M 150.89668 -47.354302 C 125.84666 -47.351402 97.862657 -42.317456 76.919283 -34.862041 C 58.842588 -28.30729 44.347665 -21.17304 30.881783 -12.202442 C 14.824775 -1.505724 2.2596532 11.467793 -6.9593183 26.868558 C -9.9661423 31.891621 -14.153261 40.440989 -15.640959 44.595641 C -17.580745 50.942641 -18.727592 56.569618 -18.727592 62.781611 C -51.957496 93.157503 -90.224399 121.71632 -125.65285 137.21841 C -132.71146 140.2433 -139.34672 142.88947 -152.53183 147.93869 C -178.56609 157.90843 -191.78127 163.64462 -200.39661 168.71416 C -214.45566 176.98693 -224.71688 187.97471 -228.03833 198.31339 C -229.89867 204.10409 -228.71792 207.97107 -224.80339 208.91016 C -205.14101 207.81545 -184.05772 207.57073 -170.06926 209.3029 C -143.31222 213.23212 -117.14936 211.75153 -94.001551 207.55985 C -64.978619 202.24598 -33.124162 192.42988 1.2484494 178.20867 C 3.4312551 177.30558 5.7622631 176.35079 6.4290118 176.08684 L 7.6413409 175.60677 L 10.133178 177.46815 C 27.996593 190.80955 47.848608 198.66038 71.834839 201.87028 C 105.97214 209.61957 139.2894 198.06593 167.25537 216.24253 C 183.60447 230.8543 185.07785 253.588 180.78426 271.17613 C 174.41991 296.94007 158.46628 316.94838 130.49741 334.24204 C 88.167229 354.5022 66.897451 408.44822 64.182593 452.64154 L 147.42971 452.64154 C 144.56561 389.33726 191.48206 354.60735 209.49155 302.63674 C 216.01888 284.23662 218.0772 264.15063 215.8028 241.04877 C 213.904 227.38733 211.85306 214.44788 204.38954 202.81647 C 195.6422 189.47743 179.71703 181.23748 156.35216 177.96166 C 146.53568 176.58535 145.62776 176.54816 119.78178 176.46098 C 90.580299 176.36248 86.491409 176.16681 76.082641 174.37067 C 64.670031 171.50261 45.917151 168.45896 40.361824 157.41718 C 37.642551 149.49944 48.561261 143.3434 48.605766 136.14147 C 47.277179 126.60584 34.613598 123.19189 28.396663 117.23513 C 24.690861 113.64255 21.963956 110.41415 19.56051 106.77272 C 10.579168 93.165375 10.173112 80.373979 18.355416 68.814835 C 27.421588 56.007052 52.269099 41.642464 70.580135 38.623396 C 72.990055 38.226057 77.966986 38.070254 81.540189 38.211018 C 84.461284 48.856864 94.135078 56.239067 105.17441 56.24661 C 118.71923 56.246596 129.6995 45.266321 129.69952 31.721492 C 129.6995 18.176662 118.71923 7.196388 105.17441 7.1963736 C 93.696663 7.1977996 83.755032 15.159479 81.245634 26.359545 L 77.484623 26.424657 C 45.192811 28.465609 27.891067 33.998277 5.8083778 41.95911 C 19.258453 25.522061 35.521905 10.478199 50.990116 1.4794099 C 105.01378 -25.576744 170.98122 -28.856218 225.42805 -4.2577076 C 241.55527 3.1672092 258.4792 15.352346 271.09916 28.537707 L 271.09916 -13.476266 C 255.65376 -23.544401 236.78307 -32.304544 218.86824 -37.594174 C 194.20157 -44.234995 173.66878 -47.431035 150.89668 -47.354302 z M -3.5631432 93.071235 C 4.7077307 100.84347 1.5576051 118.4273 7.1648842 127.7916 C 10.307708 133.01327 11.048478 134.99698 10.837528 137.6251 C 6.2172044 151.37843 -15.302396 159.64397 -24.775285 164.24364 C -64.336426 183.31726 -100.86589 192.75104 -144.40468 195.13787 C -147.63871 194.552 -192.05494 196.9857 -192.29426 193.66303 C -192.29426 192.83312 -190.85428 190.49392 -189.52544 189.16511 C -171.34294 176.50117 -149.08006 169.31695 -135.21919 163.55841 C -113.60999 154.58614 -102.5641 149.63505 -89.371342 143.00669 C -72.435606 134.49776 -61.269331 127.76911 -32.750509 108.88732 C -17.01137 98.466734 -13.703621 96.388686 -10.393217 94.842187 C -7.3606733 93.425499 -5.4649594 92.933667 -3.5631432 93.071235 z " /></g></svg>
